<svg width="101" height="101" viewBox="0 0 101 101" fill="none" xmlns="http://www.w3.org/2000/svg">
<circle cx="98.2826" cy="98.0316" r="2.0314" transform="rotate(-180 98.2826 98.0316)" fill="white"/>
<circle cx="74.2198" cy="98.0316" r="2.0314" transform="rotate(-180 74.2198 98.0316)" fill="white"/>
<circle cx="50.1571" cy="98.0316" r="2.0314" transform="rotate(-180 50.1571 98.0316)" fill="white"/>
<circle cx="26.0941" cy="98.0316" r="2.0314" transform="rotate(-180 26.0941 98.0316)" fill="white"/>
<circle cx="2.03134" cy="98.0316" r="2.0314" transform="rotate(-180 2.03134 98.0316)" fill="white"/>
<circle cx="98.2826" cy="74.0316" r="2.0314" transform="rotate(-180 98.2826 74.0316)" fill="white"/>
<circle cx="74.2198" cy="74.0316" r="2.0314" transform="rotate(-180 74.2198 74.0316)" fill="white"/>
<circle cx="50.1571" cy="74.0316" r="2.0314" transform="rotate(-180 50.1571 74.0316)" fill="white"/>
<circle cx="26.0941" cy="74.0316" r="2.0314" transform="rotate(-180 26.0941 74.0316)" fill="white"/>
<circle cx="2.03134" cy="74.0316" r="2.0314" transform="rotate(-180 2.03134 74.0316)" fill="white"/>
<circle cx="98.2826" cy="50.0316" r="2.0314" transform="rotate(-180 98.2826 50.0316)" fill="white"/>
<circle cx="74.2198" cy="50.0316" r="2.0314" transform="rotate(-180 74.2198 50.0316)" fill="white"/>
<circle cx="50.1571" cy="50.0316" r="2.0314" transform="rotate(-180 50.1571 50.0316)" fill="white"/>
<circle cx="26.0941" cy="50.0316" r="2.0314" transform="rotate(-180 26.0941 50.0316)" fill="white"/>
<circle cx="2.03134" cy="50.0316" r="2.0314" transform="rotate(-180 2.03134 50.0316)" fill="white"/>
<circle cx="98.2826" cy="26.0316" r="2.0314" transform="rotate(-180 98.2826 26.0316)" fill="white"/>
<circle cx="74.2198" cy="26.0316" r="2.0314" transform="rotate(-180 74.2198 26.0316)" fill="white"/>
<circle cx="50.1571" cy="26.0316" r="2.0314" transform="rotate(-180 50.1571 26.0316)" fill="white"/>
<circle cx="26.0941" cy="26.0316" r="2.0314" transform="rotate(-180 26.0941 26.0316)" fill="white"/>
<circle cx="2.03134" cy="26.0316" r="2.0314" transform="rotate(-180 2.03134 26.0316)" fill="white"/>
<circle cx="98.2826" cy="2.03159" r="2.0314" transform="rotate(-180 98.2826 2.03159)" fill="white"/>
<circle cx="74.2198" cy="2.03159" r="2.0314" transform="rotate(-180 74.2198 2.03159)" fill="white"/>
<circle cx="50.1571" cy="2.03159" r="2.0314" transform="rotate(-180 50.1571 2.03159)" fill="white"/>
<circle cx="26.0941" cy="2.03159" r="2.0314" transform="rotate(-180 26.0941 2.03159)" fill="white"/>
<circle cx="2.03134" cy="2.03159" r="2.0314" transform="rotate(-180 2.03134 2.03159)" fill="white"/>
</svg>
